<?xml version="1.0" standalone="no"?>
<!DOCTYPE svg PUBLIC "-//W3C//DTD SVG 20010904//EN"
 "http://www.w3.org/TR/2001/REC-SVG-20010904/DTD/svg10.dtd">
<svg version="1.0" xmlns="http://www.w3.org/2000/svg"
 width="273.000000pt" height="107.000000pt" viewBox="0 0 273.000000 107.000000"
 preserveAspectRatio="xMidYMid meet">
<metadata>
Created by potrace 1.15, written by Peter Selinger 2001-2017
</metadata>
<g transform="translate(0.000000,107.000000) scale(0.100000,-0.100000)"
stroke="none">
<path d="M767 813 c-14 -38 -51 -142 -83 -233 -31 -91 -59 -171 -62 -177 -3
-9 7 -13 31 -13 33 0 35 2 52 58 10 31 22 63 28 70 6 8 40 12 102 12 l92 0 25
-67 c23 -63 27 -68 56 -71 18 -2 32 0 32 5 0 4 -28 87 -61 183 -34 96 -70 203
-81 238 l-20 62 -43 0 -43 0 -25 -67z m104 -105 c18 -57 35 -109 37 -115 3
-10 -18 -13 -78 -13 -61 0 -80 3 -77 13 3 6 20 58 38 115 18 56 35 102 39 102
4 0 22 -46 41 -102z" fill ="#e90834"/>

<path d="M1248 773 c-21 -59 -58 -166 -83 -237 -25 -71 -45 -134 -45 -138 0
-5 14 -8 32 -6 30 3 33 7 52 68 l21 65 100 3 101 3 23 -71 c22 -69 23 -70 58
-70 29 0 34 3 28 18 -3 9 -22 62 -41 117 -19 55 -53 156 -77 225 l-44 125 -44
3 -44 3 -37 -108z m118 -69 c19 -54 34 -103 34 -111 0 -10 -19 -13 -76 -13
l-76 0 7 28 c11 47 69 202 73 197 2 -2 20 -48 38 -101z" fill ="#e90834"/>

<path d="M1788 880 c-45 -13 -86 -49 -115 -98 -26 -43 -28 -56 -28 -148 0 -94
2 -104 30 -150 43 -71 116 -107 205 -102 38 2 82 12 105 23 35 18 40 24 41 57
l2 37 -40 -27 c-55 -36 -158 -43 -204 -14 -83 53 -100 246 -28 331 48 57 158
64 230 15 19 -13 37 -24 40 -24 3 0 4 17 2 37 -3 34 -7 39 -48 55 -47 18 -146
22 -192 8z" fill ="#e90834"/>

<path d="M1255 291 c-38 -11 -144 -45 -235 -76 -309 -108 -473 -137 -644 -116
-100 13 -235 46 -299 75 -62 27 -41 8 31 -28 277 -139 488 -138 852 7 227 90
277 108 373 132 88 23 90 24 42 24 -27 0 -81 -8 -120 -18z" fill="#3655b4"/>
<path d="M1660 295 c-116 -18 -268 -58 -364 -95 -89 -34 -279 -130 -273 -137
3 -2 32 3 64 11 33 9 134 29 224 46 433 79 883 100 1228 55 68 -8 125 -14 128
-12 7 8 -202 69 -331 97 -72 16 -175 34 -228 39 -129 14 -343 12 -448 -4z" fill="#36b451"/>
</g>
</svg>
